<svg xmlns="http://www.w3.org/2000/svg" version="1.1" xmlns:xlink="http://www.w3.org/1999/xlink" xmlns:svgjs="http://svgjs.dev/svgjs" width="2000" height="227" viewBox="0 0 2000 227"><g transform="matrix(1,0,0,1,-1.2121212121212466,-1.3698979126378816)"><svg viewBox="0 0 396 45" data-background-color="#ffffff" preserveAspectRatio="xMidYMid meet" height="227" width="2000" xmlns="http://www.w3.org/2000/svg" xmlns:xlink="http://www.w3.org/1999/xlink"><g id="tight-bounds" transform="matrix(1,0,0,1,0.2400000000000091,0.27156566550090133)"><svg viewBox="0 0 395.52 44.456868668998176" height="44.456868668998176" width="395.52"><g><svg viewBox="0 0 454.09721509279996 51.041009947255326" height="44.456868668998176" width="395.52"><g transform="matrix(1,0,0,1,58.577215092800046,7.054148263332685)"><svg viewBox="0 0 395.5199999999999 36.932713420589955" height="36.932713420589955" width="395.5199999999999"><g id="textblocktransform"><svg viewBox="0 0 395.5199999999999 36.932713420589955" height="36.932713420589955" width="395.5199999999999" id="textblock"><g><svg viewBox="0 0 395.5199999999999 36.932713420589955" height="36.932713420589955" width="395.5199999999999"><g transform="matrix(1,0,0,1,0,0)"><svg width="395.5199999999999" viewBox="4.49 -35.01 374.9 35.01" height="36.932713420589955" data-palette-color="#6d4aed"><path d="M9.5 0L4.49 0 4.49-35.01 23.66-35.01Q32.15-35.01 32.15-26.49L32.15-26.49 32.15-21.51Q32.15-12.99 23.66-12.99L23.66-12.99 9.5-12.99 9.5 0ZM9.5-30L9.5-17.99 23.39-17.99Q25.39-17.99 26.27-18.87 27.15-19.75 27.15-21.75L27.15-21.75 27.15-26.25Q27.15-28.25 26.27-29.13 25.39-30 23.39-30L23.39-30 9.5-30ZM66.79-26.49L66.79-22.51Q66.79-15.19 60.54-14.16L60.54-14.16 67.14 0 61.59 0 55.1-13.99 44.14-13.99 44.14 0 39.13 0 39.13-35.01 58.3-35.01Q66.79-35.01 66.79-26.49L66.79-26.49ZM44.14-30L44.14-18.99 58.03-18.99Q60.03-18.99 60.91-19.87 61.79-20.75 61.79-22.75L61.79-22.75 61.79-26.25Q61.79-28.25 60.91-29.13 60.03-30 58.03-30L58.03-30 44.14-30ZM105.15-30L105.15-5Q105.15-3.98 104.76-3.06 104.37-2.15 103.68-1.46 103-0.78 102.08-0.39 101.17 0 100.14 0L100.14 0 80.15 0Q79.12 0 78.21-0.39 77.29-0.78 76.61-1.46 75.92-2.15 75.53-3.06 75.14-3.98 75.14-5L75.14-5 75.14-30Q75.14-31.03 75.53-31.95 75.92-32.86 76.61-33.53 77.29-34.2 78.21-34.61 79.12-35.01 80.15-35.01L80.15-35.01 100.14-35.01Q101.17-35.01 102.08-34.61 103-34.2 103.68-33.53 104.37-32.86 104.76-31.95 105.15-31.03 105.15-30L105.15-30ZM100.14-30L80.15-30 80.15-5 100.14-5 100.14-30ZM113.13-5L113.13-11.01 118.13-11.01 118.13-5 132.29-5 132.29-35.01 137.3-35.01 137.3-5Q137.3-3.98 136.89-3.06 136.49-2.15 135.82-1.46 135.15-0.78 134.23-0.39 133.32 0 132.29 0L132.29 0 118.13 0Q117.11 0 116.19-0.39 115.28-0.78 114.6-1.46 113.93-2.15 113.53-3.06 113.13-3.98 113.13-5L113.13-5ZM146.28 0L146.28-35.01 171.79-35.01 171.79-30 151.28-30 151.28-20 168.79-20 168.79-14.99 151.28-14.99 151.28-5 171.79-5 171.79 0 146.28 0ZM179.28-5L179.28-30Q179.28-31.03 179.68-31.95 180.07-32.86 180.75-33.53 181.43-34.2 182.35-34.61 183.26-35.01 184.29-35.01L184.29-35.01 203.28-35.01Q204.31-35.01 205.22-34.61 206.14-34.2 206.82-33.53 207.51-32.86 207.9-31.95 208.29-31.03 208.29-30L208.29-30 208.29-25.49 203.28-25.49 203.28-30 184.29-30 184.29-5 203.28-5 203.28-9.5 208.29-9.5 208.29-5Q208.29-3.98 207.9-3.06 207.51-2.15 206.82-1.46 206.14-0.78 205.22-0.39 204.31 0 203.28 0L203.28 0 184.29 0Q183.26 0 182.35-0.39 181.43-0.78 180.75-1.46 180.07-2.15 179.68-3.06 179.28-3.98 179.28-5L179.28-5ZM213.29-30L213.29-35.01 241.29-35.01 241.29-30 229.79-30 229.79 0 224.79 0 224.79-30 213.29-30ZM259.28-30L259.28-35.01 287.28-35.01 287.28-30 275.79-30 275.79 0 270.78 0 270.78-30 259.28-30ZM293.29-35.01L298.29-35.01 298.29 0 293.29 0 293.29-35.01ZM326.83 0L325.34 0 312.28-25.66 312.28 0 307.27 0 307.27-35.01 312.74-35.01 326.07-8.64 339.43-35.01 344.87-35.01 344.87 0 339.89 0 339.89-25.66 326.83 0ZM353.88 0L353.88-35.01 379.39-35.01 379.39-30 358.88-30 358.88-20 376.39-20 376.39-14.99 358.88-14.99 358.88-5 379.39-5 379.39 0 353.88 0Z" opacity="1" transform="matrix(1,0,0,1,0,0)" fill="#6d4aed" class="wordmark-text-0" data-fill-palette-color="primary" id="text-0"></path></svg></g></svg></g></svg></g></svg></g><g><svg viewBox="0 0 49.85828783932085 51.041009947255326" height="51.041009947255326" width="49.85828783932085"><g><svg xmlns="http://www.w3.org/2000/svg" xmlns:xlink="http://www.w3.org/1999/xlink" version="1.1" x="0" y="0" viewBox="1.158244021520358 0 97.68275597847963 99.99995458409646" enable-background="new 0 0 100 100" xml:space="preserve" height="51.041009947255326" width="49.85828783932085" class="icon-icon-0" data-fill-palette-color="accent" id="icon-0"><path d="M36.35 9.685C36.356 9.632 36.366 9.58 36.372 9.527L36.134 9.765z" fill="#edaf4a" data-fill-palette-color="accent"></path><path d="M36.765 7.639C36.961 6.957 37.21 6.298 37.511 5.666L37.502 5.663 31.309 11.856A46 46 0 0 1 33.64 10.765z" fill="#edaf4a" data-fill-palette-color="accent"></path><path d="M36.442 5.225C36.144 5.105 35.847 4.989 35.552 4.876L24.546 15.881 24.68 15.933A46 46 0 0 1 27.922 13.744z" fill="#edaf4a" data-fill-palette-color="accent"></path><path d="M23.455 15.477L34.459 4.472A51 51 0 0 0 33.539 4.154L22.534 15.159C22.839 15.261 23.146 15.366 23.455 15.477" fill="#edaf4a" data-fill-palette-color="accent"></path><path d="M20.442 14.515C20.759 14.604 21.078 14.698 21.4 14.796L32.405 3.791A42 42 0 0 0 31.447 3.51z" fill="#edaf4a" data-fill-palette-color="accent"></path><path d="M18.255 13.966C18.586 14.038 18.922 14.117 19.259 14.201L30.264 3.196A35 35 0 0 0 29.26 2.961z" fill="#edaf4a" data-fill-palette-color="accent"></path><path d="M15.935 13.551C16.287 13.6 16.643 13.657 17.004 13.721L28.009 2.716C27.649 2.652 27.292 2.595 26.94 2.546z" fill="#edaf4a" data-fill-palette-color="accent"></path><path d="M13.425 13.325C13.806 13.338 14.196 13.365 14.591 13.399L25.596 2.394A22 22 0 0 0 24.43 2.32z" fill="#edaf4a" data-fill-palette-color="accent"></path><path d="M19.746 2.772C19.061 2.95 18.417 3.183 17.812 3.465L13.323 7.954A9.3 9.3 0 0 1 15.161 5.303L4.156 16.309C-0.865 21.33 0.636 31.778 7.055 43.989 11.798 53.013 19.225 62.997 28.694 72.467A148 148 0 0 0 33.009 76.602L28.003 81.609 40.561 83.754 53.118 85.898 50.976 73.338 48.831 60.78 44.015 65.595A146 146 0 0 1 39.7 61.46C27.678 49.438 18.947 36.586 14.824 25.926 12.956 21.098 12.033 16.721 12.18 13.074L22.931 2.323C22.47 2.341 22.021 2.377 21.584 2.429L12.286 11.727C12.364 11.087 12.476 10.473 12.629 9.887z" fill="#edaf4a" data-fill-palette-color="accent"></path><path d="M98.777 75.699L87.771 86.705C87.804 87.102 87.826 87.494 87.837 87.878L98.841 76.874A21 21 0 0 0 98.777 75.699" fill="#edaf4a" data-fill-palette-color="accent"></path><path d="M87.461 84.281C87.523 84.642 87.58 85.001 87.627 85.353L98.633 74.347A27 27 0 0 0 98.465 73.275z" fill="#edaf4a" data-fill-palette-color="accent"></path><path d="M86.988 82.019C87.07 82.358 87.148 82.693 87.218 83.026L98.224 72.021A36 36 0 0 0 97.992 71.013z" fill="#edaf4a" data-fill-palette-color="accent"></path><path d="M97.682 69.828A46 46 0 0 0 97.403 68.867L91.694 74.575A46 46 0 0 1 89.766 77.744z" fill="#edaf4a" data-fill-palette-color="accent"></path><path d="M97.043 67.731A44 44 0 0 0 96.725 66.808L94.164 69.369A45 45 0 0 1 93.232 71.542z" fill="#edaf4a" data-fill-palette-color="accent"></path><path d="M96.324 65.714A81 81 0 0 0 95.976 64.821L95.593 65.205A48 48 0 0 1 95.031 67.006z" fill="#edaf4a" data-fill-palette-color="accent"></path><path d="M55.797 96.183C55 95.759 54.197 95.325 53.383 94.861L50.557 93.249 53.467 90.34A37.6 37.6 0 0 1 32.115 84.83L22.852 83.249 25.964 80.137C20.445 74.962 16.475 68.156 14.831 60.494A115 115 0 0 1 8.039 50.714 43 43 0 0 0 8 52.55C8 76.71 27.655 96.364 51.814 96.364 53.158 96.364 54.484 96.301 55.797 96.183" fill="#edaf4a" data-fill-palette-color="accent"></path><path d="M38.019 10.961C29.768 13.706 22.6 18.842 17.338 25.543 17.569 26.122 17.814 26.71 18.075 27.306A71 71 0 0 0 20.222 31.767C25.304 24.069 33.121 18.328 42.279 15.941A8.4 8.4 0 0 0 49.186 19.57H54.443A8.4 8.4 0 0 0 61.351 15.941C77.607 20.178 89.642 34.984 89.642 52.55 89.642 65.116 83.48 76.268 74.023 83.152 76.349 84.159 78.572 84.949 80.652 85.509 89.826 77.472 95.631 65.676 95.631 52.55 95.631 33.208 83.033 16.756 65.611 10.961 65.498 4.898 60.535 0 54.443 0H49.186C43.097 0 38.133 4.898 38.019 10.961M49.187 5.988H54.444C55.796 5.988 57.022 6.511 57.946 7.361 57.948 7.365 57.95 7.371 57.95 7.375 57.95 7.948 55.8 9.347 51.817 9.347 47.832 9.347 45.682 7.948 45.682 7.375L45.685 7.361A5.15 5.15 0 0 1 49.187 5.988M44.002 11.173C44.002 10.688 44.074 10.219 44.199 9.773 44.731 10.259 45.425 10.666 46.223 10.993V15.422A5.18 5.18 0 0 1 44.002 11.173M47.684 16.133V11.473C48.253 11.62 48.851 11.737 49.465 11.82V16.358H49.187A5.2 5.2 0 0 1 47.684 16.133M50.924 16.357V11.953A18 18 0 0 0 52.705 11.953V16.357zM54.443 16.357H54.166V11.82A15 15 0 0 0 55.947 11.473V16.133C55.471 16.278 54.967 16.357 54.443 16.357M59.432 9.772C59.557 10.218 59.629 10.687 59.629 11.172A5.18 5.18 0 0 1 57.408 15.42V10.992C58.205 10.665 58.898 10.258 59.432 9.772" fill="#edaf4a" data-fill-palette-color="accent"></path><path d="M64.578 79.228L65.203 78.604 65.492 78.768C74.933 73.823 81.392 63.927 81.392 52.55 81.392 36.24 68.124 22.972 51.816 22.972 40.022 22.972 29.82 29.91 25.074 39.919A108 108 0 0 0 27.227 43.039C31.05 33.187 40.63 26.185 51.816 26.185 66.351 26.185 78.179 38.012 78.179 52.55 78.179 66.207 67.74 77.471 54.421 78.784L54.964 81.959A29.4 29.4 0 0 0 64.578 79.228" fill="#edaf4a" data-fill-palette-color="accent"></path><path d="M51.814 29.035A2.045 2.045 0 0 0 49.77 31.08V36.338A2.044 2.044 0 0 0 53.859 36.338V31.08C53.859 29.95 52.945 29.035 51.814 29.035" fill="#edaf4a" data-fill-palette-color="accent"></path><path d="M53.859 74.019V68.762C53.859 67.826 53.232 67.04 52.375 66.796L53.73 74.731C53.812 74.508 53.859 74.27 53.859 74.019" fill="#edaf4a" data-fill-palette-color="accent"></path><path d="M68.027 54.594H73.285A2.045 2.045 0 1 0 73.285 50.505H68.027A2.046 2.046 0 0 0 68.027 54.594" fill="#edaf4a" data-fill-palette-color="accent"></path><path d="M37.648 52.55C37.648 51.42 36.733 50.505 35.604 50.505H33.02A137 137 0 0 0 36.429 54.42 2.05 2.05 0 0 0 37.648 52.55" fill="#edaf4a" data-fill-palette-color="accent"></path><path d="M40.643 33.197A0.876 0.876 0 0 0 40.322 34.394L42.891 38.843 41.669 34.345A2.9 2.9 0 0 1 41.689 33.329 0.876 0.876 0 0 0 40.643 33.197" fill="#edaf4a" data-fill-palette-color="accent"></path><path d="M62.551 72.019A0.876 0.876 0 0 0 63.309 70.705L60.68 66.152A0.876 0.876 0 1 0 59.163 67.028L61.792 71.581C61.953 71.861 62.248 72.019 62.551 72.019" fill="#edaf4a" data-fill-palette-color="accent"></path><path d="M65.096 44.881A0.876 0.876 0 0 0 66.294 45.202L70.849 42.574A0.877 0.877 0 0 0 69.972 41.056L65.417 43.685A0.875 0.875 0 0 0 65.096 44.881" fill="#edaf4a" data-fill-palette-color="accent"></path><path d="M38.535 44.881A0.875 0.875 0 0 0 38.215 43.684L33.661 41.055A0.877 0.877 0 0 0 32.785 42.573L37.338 45.202A0.87 0.87 0 0 0 38.535 44.881" fill="#edaf4a" data-fill-palette-color="accent"></path><path d="M71.168 63.723A0.877 0.877 0 0 0 70.848 62.526L66.293 59.897A0.877 0.877 0 0 0 65.416 61.415L69.971 64.043A0.874 0.874 0 0 0 71.168 63.723" fill="#edaf4a" data-fill-palette-color="accent"></path><path d="M61.791 33.518L59.162 38.072A0.877 0.877 0 0 0 60.68 38.948L63.309 34.395A0.876 0.876 0 1 0 61.791 33.518" fill="#edaf4a" data-fill-palette-color="accent"></path><path d="M65.619 81.698L54.613 92.703C57.439 94.314 60.187 95.675 62.816 96.772 72.548 100.833 80.623 101.23 84.849 97.003L95.855 85.997A9.2 9.2 0 0 1 93.486 87.7L97.56 83.626C97.876 83.002 98.13 82.331 98.328 81.619L91.473 88.474C90.879 88.639 90.254 88.759 89.606 88.845L98.708 79.743C98.767 79.302 98.808 78.848 98.829 78.382L88.24 88.973C85.904 89.086 83.263 88.754 80.394 88.013 75.93 86.86 70.912 84.716 65.619 81.698" fill="#edaf4a" data-fill-palette-color="accent"></path><path d="M48.497 49.814L48.554 49.758 48.975 49.404 52.31 46.602 47.015 33.156 46.863 32.77C46.384 31.854 45.23 31.412 44.132 31.777 43.032 32.141 42.371 33.186 42.534 34.206L42.642 34.605 47.451 52.292A3.64 3.64 0 0 1 48.497 49.814" fill="#edaf4a" data-fill-palette-color="accent"></path><path d="M63.861 40.261A2.22 2.22 0 0 0 60.982 40.066L60.787 40.231 49.678 49.562 49.257 49.916 49.2 49.971A3.657 3.657 0 0 0 49.247 55.144C49.551 55.441 49.893 55.671 50.257 55.842L50.527 55.956A3.66 3.66 0 0 0 54.419 55.097C54.439 55.078 54.454 55.058 54.474 55.039L54.82 54.611 63.947 43.335 64.109 43.135A2.22 2.22 0 0 0 63.861 40.261M52.428 54.396A1.944 1.944 0 1 1 51.203 50.706 1.944 1.944 0 0 1 52.428 54.395" fill="#edaf4a" data-fill-palette-color="accent"></path></svg></g></svg></g></svg></g><defs></defs></svg><rect width="395.52" height="44.456868668998176" fill="none" stroke="none" visibility="hidden"></rect></g></svg></g></svg>